/* XPM */
static char *_7220ece60c746f7fbb96ddb7bafef99JwD1KaWnnqKZ7iZu[] = {
/* columns rows colors chars-per-pixel */
"64 64 113 2 ",
"   c #000001",
".  c #06030B",
"X  c #100C1C",
"o  c #271E3D",
"O  c #3B2754",
"+  c #3600AB",
"@  c #3A00AD",
"#  c #3D00B2",
"$  c #4100AF",
"%  c #4300B5",
"&  c #4901B6",
"*  c #4500BA",
"=  c #4B01BC",
"-  c #5302BD",
";  c #5904BE",
":  c #4D01C1",
">  c #5302C3",
",  c #5B04C4",
"<  c #5E0AC2",
"1  c #5D03C9",
"2  c #6205C6",
"3  c #630AC5",
"4  c #680BC7",
"5  c #6305CB",
"6  c #6A05CD",
"7  c #6609CA",
"8  c #6B0CCC",
"9  c #7107CF",
"0  c #710DCE",
"q  c #6510C6",
"w  c #6A12C7",
"e  c #6E11CC",
"r  c #7412CF",
"t  c #6D05D1",
"y  c #6D09D1",
"u  c #7207D2",
"i  c #740CD3",
"p  c #7A0ED6",
"a  c #770FD8",
"s  c #7A0ED8",
"d  c #7513D2",
"f  c #7B14D5",
"g  c #7518D0",
"h  c #7C19D5",
"j  c #7D12D9",
"k  c #7E19D8",
"l  c #8114D7",
"z  c #801CD7",
"x  c #8216DB",
"c  c #841BDB",
"v  c #821CD9",
"b  c #861EDB",
"n  c #831BDF",
"m  c #861FDD",
"M  c #851CDE",
"N  c #861FDE",
"B  c #891DDE",
"V  c #8A1FDE",
"C  c #8120D6",
"Z  c #8621DA",
"A  c #8721DB",
"S  c #8722DD",
"D  c #8A23DC",
"F  c #8A22DD",
"G  c #8C25DD",
"H  c #8D26DC",
"J  c #8C24DF",
"K  c #8E28DD",
"L  c #8F29DE",
"P  c #871BE0",
"I  c #8B1DE1",
"U  c #901EE1",
"Y  c #8C22E0",
"T  c #8E23E0",
"R  c #8E22E1",
"E  c #8D24E0",
"W  c #8E28E1",
"Q  c #9325E2",
"!  c #9224E3",
"~  c #9325E4",
"^  c #9225E6",
"/  c #9427E4",
"(  c #9627E5",
")  c #942BE2",
"_  c #9229E4",
"`  c #952AE4",
"'  c #952BE4",
"]  c #942BE6",
"[  c #972CE5",
"{  c #982FE4",
"}  c #992DE6",
"|  c #9A2DE7",
" . c #9A2EE6",
".. c #972AE8",
"X. c #9A2DE8",
"o. c #9B2DE8",
"O. c #9B2EE9",
"+. c #9732E3",
"@. c #9C33E6",
"#. c #9E30EA",
"$. c #9E31EA",
"%. c #9F33EA",
"&. c #9F32EB",
"*. c #A037E9",
"=. c #A235EB",
"-. c #A033EC",
";. c #A133ED",
":. c #A339EB",
">. c #A33AEC",
",. c #A53AEC",
"<. c #A93DEE",
"1. c #A73CF0",
"2. c #AF42F2",
/* pixels */
". X o o X X o X X X . . . . X .   . . . X .       . X o X X X X X . . . X X X . . . .   . .         . . X . X X X . . . . . . X ",
"X . X o o o X X . . . . X X . . . . X X .   . . X X o o o o X X X X . . . . X X X X . .           . .   .   . X X X X . . . . . ",
". X X X o o o . . . . . . X X . X X X . . . . X X o o o o X o o o X X . . X X X X . .           .         . . . . . . . . X . . ",
"X X X X X . . . . . . . . . X X X X . . . X X X o o X X o o o o X X . X X . . X X X X . .             . . . . . . . . . X o X X ",
"X X X X X X . . . . .   .   . X X . . . . . X X X X o X X X o X X X X X . . X X X . . .                 . . . . . X X X X X o o ",
"X X . . . . .   . .       . . . X . .     . . . X X . . X . X X . . . X X X X X . . .     .     . . . . . . X . X . X o o o o X ",
"X . X . . . . .         . . . X . . . .     . . . X X . . . . X X . . . X X . . X X . X X X . .   . . X X X X X . X o o o O O o ",
". . . X . . . % % # # # @ @ @ @ & - 4 g F ~ ..~ P d 5 1 : * * * % * = > 1 5 6 5 , : = = : = : 1 7 i k P R N g 8 5 . . . . . . . ",
"X . X X . . . # # # # + + @ @ & - 7 x H } &.| / k e < : * % % # # % % = , 1 1 < > = * * * * : > 5 i S _ | +.K h 0 .   .   . X . ",
"X . X . .   . * # @ @ @ @ # & - 3 h K o.-.o.` F d 7 > & % # # # @ # # & : > > > : = # # # * = : 1 d N [ :.>.@.K h       . . X X ",
"X X . .     . # # @ @ @ # & > 4 f D o.-.&.} Z g 7 = & # # # + + + + @ & = : > : : * # # # # % & > 3 k W &.2.<.%.H     . . X X X ",
"X . . .   .   % # # # % & < 4 f V / o.o.) D g 3 - & @ # + + + + + + @ % = : : : : * : # @ # # % = , e C +.%.2.,.|     . . . X o ",
". . .   .     * % % & = , 4 k F / / / D C r < ; % $ @ + + + + + + + @ % * = : > : * * # # + # # = - , e b ) =.,.-.  . . X X O O ",
". . . . .     & & = = 3 e k E ` / ! B l r 3 & $ @ + + @ @ @ @ # # # # & = > > 1 : : & % # @ @ @ % * = < i l ` &.-.  . X o O O o ",
".     .       = = > 2 r Z Q | o.` V h 8 ; ; & $ + + + $ $ % & % % % % * - , 1 5 1 1 : * % @ @ @ # * & > 2 8 z ~ o.    . X o o O ",
". .         . - > 3 r Z ) o.-.o.R l 0 , - $ $ + + + $ $ & ; > , - = - - , 2 y i a e 3 > & # @ @ # # % & - , 6 f H   . . . X o O ",
"          . . > 2 r F [ =.>.&.) b 0 2 - % # @ @ @ @ & - 3 7 8 8 2 2 , , 2 6 i l C C g 4 ; % % @ # # # # * - 1 8 l .   X X X O o ",
".       . . . 2 0 v [ =.>.=.+.H f 2 - & # @ @ @ @ & - < e h k f i 6 6 5 5 8 f b L ) H C w ; & $ # # # # * = - 1 0 . . . X o O X ",
"      . .   . 8 v / &.1.,.| D g 3 - & # # @ @ # & = , d b Y R R c f i y t u p D *.>.*.+.z 4 - & # # # # # * = > 2 . . X . X o X ",
"          .   d F ..-.-.| D r 3 - & $ @ + @ @ & - < 8 f Y ~ ~ ~ I V p u t u p D @.<.2.>.[ C w ; = # * # # # * = - . X X X X X X ",
"              j R ...._ Z g 3 = $ $ @ + # # % = 2 8 z V ( U U / U I M a 9 6 9 l ) *.2.2.>.[ z 4 > = % # # # # * & . X X X X X X ",
"              f N R R v e 2 & % @ @ @ @ @ % = < 8 h B D U ( U U U I n j 9 6 6 9 B [ <.2.<.*.H h 8 > & & # # # # %   . . X X X X ",
". .           y p d r 8 < = # # @ + + @ % = , 4 l D Q Q U U c x I P n s 9 6 2 3 r z @.>.<.<.@.H h 4 > = * # # # #   . X X . X . ",
"  . . . .     5 6 2 2 > & % # @ + + @ $ & ; 4 h H ( / Q B l l l x x s p 6 2 ; 3 4 r H [ <.>.>.[ F g 5 , : * # # # . X X X X . . ",
". . . .     . 1 1 > - = * # + + + + $ & - 7 f V } o.} Q l 9 9 9 p a a y 5 1 > > > 3 r C ` @.>.-.` V d 5 > = & # @ X X . . X X . ",
". . . . . .   > : : = & # # @ @ @ $ & - 2 r b / o.-.} H f 9 9 6 y t t t 5 1 > > - > 2 8 C L [ @.| Q c i 4 , = & # . . X . . . . ",
"X . . . . . . > > : = & # # # # # * = < 8 j / / o.o./ B f 6 5 1 5 5 5 1 1 1 : : : = : , 8 h B Q Q Q U M d 8 , & #   . . . . . . ",
"o X X . X . . > > > > : : # # # & = > 7 p x U / o.( H B f 9 5 2 , , > > : : : : * = * = ; 2 f l V R ! I N d 8 > =       . . .   ",
"O o X X . X . 1 1 1 > > : * # : = > 1 y a n I I U U B B l l 9 2 : : : : : : : : : # : : = - 2 0 f x R Q R N d 7 , .   . . . . . ",
"O O O o X X . 1 1 1 1 : : : : # : > 5 y j j x P c l V x x l 0 4 > : # * * * : * * : # # % & - 2 0 l V U ~ I x 0 < . . .     . . ",
"o X o O o X X 5 1 1 1 1 : : # : > > 7 y i a j p l l l x U U l r ; % * # * : # # * # # # % & = , 6 p B I ! ! v d 2 .     .       ",
"X X X o o X X 5 5 1 1 1 : : : : : 1 5 y y i a a 9 u p l U U D r < & # # # # # : # * # # % & = ; 6 p l B ! I z d 2   .         . ",
"X X X X O X . 1 1 1 1 : : # # : : 1 1 5 u u u u t 9 u l Q ` K k q & * # # # # # # @ # # * * > 1 6 i j M M M p 8 , .     . . . . ",
"X X X X . . . 1 > 1 > : : : * : : : 1 1 t u u u t u p l _ ` W C q & * # # # # # # @ # # * : > 1 6 a j x l j i 2 - . . . X X . . ",
"X X X X . . . 1 > > : : # # # # # : 1 1 5 y u u u u p l Q K R v q > * # # # # # @ @ # # * : > 1 5 y i a p u 6 , - . . X X . X X ",
"X X X . . . X : > : : : * # # # # # : 1 t t i a u u s x H E F k 8 : * # # # # # # # # % * = : 1 1 5 t y y 6 5 , & X X X o o X X ",
"X . X X . X . : : : : * % # + @ # : : 1 6 y j a p s s l P P x d 5 > : # # # + # # % * * * : : : > 1 1 5 6 6 1 > = o o O O O o o ",
"X X . . . X X : 1 : : : % # # + # # * : 3 u j j l x s x P j i i 5 > : # # # # # # * # * * * * = = : > 1 5 5 2 2 > o O O O o o X ",
"X . . X X X O 1 1 > : : & % @ @ @ # * = 1 7 s s s x l s p i a y 1 > : : * # # * # * * # # * * * = : > 1 5 6 6 2 , O o o o X X . ",
". . . . . o o 7 e e 1 1 - & % @ @ @ # & > 1 t u s s s u i y 5 1 1 > : : : * * * * * * * # # # * * : > 2 6 u 0 6 2 o X X o o X X ",
".   . . X o o d k k h d 2 - * # @ @ @ @ & - < 3 y y a t y t 5 1 > > > : : = = & * # # # # # * * & > 5 6 p l l i 6 X X o X X . . ",
"  . . X X o X d F W W Z g 2 - & # @ @ @ $ & = > 1 5 6 6 5 5 1 > : : : : : : : = # # @ @ @ # % * > 2 i l V H l f 8 X X X X . .   ",
". X X . O X X h W o.-...S d 2 = % @ @ + + # % & = , 1 1 1 1 1 > : : : : : : : = % @ @ + @ % % - 2 0 z ` | | H h 8 X X . . X   . ",
". . X O o X X d R ..-.-.R h y , - % @ @ + + @ # & & > > 1 > > = : : : : : = * * @ + @ @ @ & ; 3 f z ) -.,.| b p 7 X X X . . X X ",
"X X X o . . X < f D ` o.! V d 5 , & % # @ + + @ # # * & : : : : : : : : * # # # @ + + $ & ; 2 h L @.<.1.=._ h 4 ; . X X X X X . ",
"X X o X . X X - 3 d R R R P j u , , & % # @ + + + + # & : : : : : : : # * # # + + @ @ & ; 3 f E @.,.2.,.| z 4 > = X . X X X X X ",
"X X X X X X X & ; 7 d n P P x i y 2 > = % $ @ + + + # # * * : : : : * : # # + + @ $ % - 2 h H o.:.2.&.+.z 0 2 & % X . . X . . . ",
"X X X X X X X # & - 6 i j x x j i y 3 ; - % $ @ + + + # # * * * * * # # # + + + $ & ; 3 0 v ` &.:.&.) h 4 ; & $ @ X . X   . . X ",
"X   X X   X X @ @ & - 4 i j j j s s u t , > & % @ @ @ @ # * * * * * # # @ + @ @ % - 2 i x I ` ..[ J h q ; & % @ @ .     . X X X ",
"X X         X + @ % & , 3 8 j j x x j a y 2 > = $ @ @ @ * # * # % # # # @ @ @ % - 2 d l I R ~ R z d 3 - & % @ @ +     . X X X o ",
". X X         @ @ @ $ & > 2 t j s x M I x d 6 > & $ % % # * * * # * @ @ @ $ % = 2 r n I I R I x i 5 > = # # @ @ @ . X X X o o o ",
"X o X     X X @ @ + @ $ & > 2 y i x P I R N d 3 - & % % * * * # * # % % $ & - 2 0 f I I ! I f i 2 > & & # @ # # @ X . X o o O O ",
"o X X   X . X * @ @ + @ * & > , 6 p x R ~ ~ N g 3 - : = = = # * * * * * * - 5 8 l V ! ! B f i 2 > & * # # # # # & X X o O O O O ",
"X X     X . . & & @ + + @ # & - 1 7 f I ~ / R z a 2 > = : = : : * * = = > 1 y d M V I P x a 2 > = * * # # # % & = X o O O o o O ",
"X X   X X X . , & # @ + @ @ # & = < t k R ~ ~ Y f u 2 > : : : : : : : > 1 t a x P B M f 0 3 > & * # # # # * * > 2 o o o o X X o ",
"X X X X X X . < = & @ + + @ @ @ = - , 8 z R Q R M i 6 1 > > : : : : > , 5 u s l B n d 8 2 - = % # # # * * = > 4 g . X o X X o X ",
". X X . . X X 2 , * % @ + + + + # & = 3 d x V I j j t 5 1 1 > > : : > 1 5 i s j j d 4 1 - & # # # # # * & , 4 f S . . X X X X X ",
"X X . . X . .             . . . . . .   . .     . .   . . . . . . X . . X X X X o O O o X X X . . X . . X X o X X . X o o X X o ",
"X X X X . .             .   . . .     . .     . . . .   . . . . . . X X X X o o O O o X X . . . . . X X o X X o o X . X o o o X ",
". X . .     .   . .       . . . . .     . . .   .       . . X . X X o X X O O O o X X X . . . . X X X o o o o O O . X X X o o o ",
"X .     . . . . .     .     . . . .   . . . X X     . . . . . X X o X X O O O o X X X X X .   . . X X X o o O O O X X X X X . . ",
".         . . .   . . X X X . . X . X X X X X .       . . X X X o o o O o o X X X . . X .     . X X X o O O o o o X X X X X X . ",
". .     . . . . . . . . X X X X . . . X X X .     . . . X X o o O O o o X X X X . X . .         X X X o O O O o X X X . . . . . ",
". . .   . . . . X . X . . X X o X X X X . X . .     . X X X X o O o X X X X X X X . . . .   . . X X o O O o o X X X . X . . . . "
};
