/* XPM */
static char *e50e3f3822204cbe968640a1094bccb5ysFELIqr8Gcb17vc[] = {
/* columns rows colors chars-per-pixel */
"64 64 186 2 ",
"   c None",
".  c #1C1200",
"X  c #1B0E00",
"o  c #251908",
"O  c #2C1E0D",
"+  c #271903",
"@  c #301C00",
"#  c #2F200F",
"$  c #32200B",
"%  c #312211",
"&  c #3B2713",
"*  c #082620",
"=  c #433214",
"-  c #46321B",
";  c #4B3817",
":  c #523C1D",
">  c #7B3F15",
",  c #523C27",
"<  c #743F33",
"1  c #57421B",
"2  c #5D461B",
"3  c #624A1D",
"4  c #684E1E",
"5  c #564720",
"6  c #7C5D25",
"7  c #79493A",
"8  c #6F5638",
"9  c #705332",
"0  c #79553A",
"q  c #674833",
"w  c #15594B",
"e  c #245542",
"r  c #17695A",
"t  c #3D6C4F",
"y  c #187161",
"u  c #1B7B6A",
"i  c #05716E",
"p  c #5F5F5F",
"a  c #7B5B46",
"s  c #59786D",
"d  c #5A7C71",
"f  c #616162",
"g  c #6A6A6A",
"h  c #68676F",
"j  c #676770",
"k  c #686771",
"l  c #6A6973",
"z  c #60776C",
"x  c #8B4C1E",
"c  c #854925",
"v  c #8C512C",
"b  c #80493A",
"n  c #84543A",
"m  c #89563B",
"M  c #8B593C",
"N  c #86573A",
"B  c #915D3E",
"V  c #905331",
"C  c #816127",
"Z  c #836328",
"A  c #98603B",
"S  c #875942",
"D  c #925E42",
"F  c #935F52",
"G  c #9A6545",
"H  c #92634B",
"J  c #976448",
"K  c #926B55",
"L  c #976655",
"P  c #9D725D",
"I  c #8F6046",
"U  c #A46F55",
"Y  c #AD7052",
"T  c #A2735C",
"R  c #AA765A",
"E  c #AA775A",
"W  c #B27B5E",
"Q  c #A06A48",
"!  c #8D7969",
"~  c #967562",
"^  c #9D7562",
"/  c #957E6B",
"(  c #A27761",
")  c #A57A63",
"_  c #AA7D65",
"`  c #A57D6A",
"'  c #AB7F68",
"]  c #B17C60",
"[  c #AB7B7A",
"{  c #1B8776",
"}  c #0F8279",
"|  c #20927E",
" . c #2E8B72",
".. c #4C8178",
"X. c #B4825F",
"o. c #8D8A7C",
"O. c #88887B",
"+. c #9C8371",
"@. c #908878",
"#. c #99806E",
"$. c #AE8169",
"%. c #A98068",
"&. c #B58164",
"*. c #B3836C",
"=. c #B98769",
"-. c #BC8C72",
";. c #B68974",
":. c #C18F6B",
">. c #C28F74",
",. c #C29277",
"<. c #3F188F",
"1. c #3E3495",
"2. c #3E2E8F",
"3. c #403497",
"4. c #42369C",
"5. c #462BA5",
"6. c #482DA6",
"7. c #4436A1",
"8. c #463AA5",
"9. c #473BA8",
"0. c #4837A5",
"q. c #5337A1",
"w. c #355A97",
"e. c #374E95",
"r. c #0E7F97",
"t. c #316498",
"y. c #3C59A3",
"u. c #3B61A6",
"i. c #554F8D",
"p. c #595386",
"a. c #585288",
"s. c #4E4499",
"d. c #4F4795",
"f. c #504795",
"g. c #504895",
"h. c #4A5F9F",
"j. c #5041A1",
"k. c #6043BC",
"l. c #7E69BE",
"z. c #0000D9",
"x. c #4E3FC8",
"c. c #535BDE",
"v. c #9A6E8F",
"b. c #A6778A",
"n. c #805FAF",
"m. c #198B84",
"M. c #00918C",
"N. c #008699",
"B. c #009C9C",
"V. c #099B9A",
"C. c #1A9E9D",
"Z. c #10889B",
"A. c #228A82",
"S. c #219983",
"D. c #2C9695",
"F. c #299D9C",
"G. c #399895",
"H. c #00A19F",
"J. c #16A09F",
"K. c #23A38C",
"L. c #26AD95",
"P. c #2DA09F",
"I. c #28B49C",
"U. c #009FA0",
"Y. c #0E96A6",
"T. c #0E8CA2",
"R. c #00A4A4",
"E. c #0DA5A5",
"W. c #00ACAC",
"Q. c #12A2A1",
"!. c #11A9A9",
"~. c #00B1B1",
"^. c #29AEA5",
"/. c #4C8B85",
"(. c #518A85",
"). c #2AC5AA",
"_. c #2DCEB2",
"`. c #2FD6B9",
"'. c #B8998B",
"]. c #C6A69D",
"[. c #CAAFA3",
"{. c #D1C6D1",
"}. c #E7DBD7",
"|. c #EDE4DC",
" X c #FEFDFD",
".X c #E1E1F5",
/* pixels */
"                                                $ $ O O # # O O o o O O O O O O                                                 ",
"                                                % $ O O % % O o o o + O O O O O                                                 ",
"                                                O # # # % % % % & & & = # # O O                                                 ",
"                                                O O X X . . . . + @ $ $ . X + O                                                 ",
"                                                - , P ) ) ) $.$.%.%.$.%.P P q =                                                 ",
"                                                - , =.>.-.-.-.,.:.>.>.,.=.&.7 =                                                 ",
"                                                P ( ;.;.$.$.*.;.=.;.-.-.*.$.K J                                                 ",
"                                                ' ' ] ] X.X.$.*.*.=.=.-.X.E U W                                                 ",
"                                                _ ;.}.}.n.k.[ [ *.*.n.k.{.|.'.E                                                 ",
"                                                &.-. X Xc.z.b.] *.*.x.z..X X[.W                                                 ",
"                                                R ] ].].b.v.F F L H v.v.].[.%.Q                                                 ",
"                                                U U Y Y &.:.S 7 7 7 &.:.&.] G A                                                 ",
"                                                G Q ] _ F F S < 7 7 H L ) ' H B                                                 ",
"                                                D D R U S b < < < 7 b b U ) D M                                                 ",
"                                                b m D F S m n n 7 n n n D H S M                                                 ",
"                                                > > 4 c V N n N M M N v v v c x                                                 ",
"                                R.R.W.~.~.~.W.E././.s s S m B B m m n a z d /.(.G.W.~.~.~.W.R.R.                                ",
"                                B.R.R.W.~.~.W.W.R.U.M.m.m V G G M N c 0 m.M.R.W.W.W.~.~.W.W.R.R.                                ",
"                                R.R.W.W.W.W.B.R.E.E.Q.F.d d S D M S s ..C.Q.E.E.E.B.W.R.R.W.W.R.                                ",
"                                R.W.W.R.R.R.B.B.W.W.W.W.M.A.n v v n A.M.W.W.W.W.H.B.W.R.R.R.i u u { S.| u             2 4       ",
"                                R.W.W.W.W.W.R.R.W.W.W.W.Q.C./.(.(.(.C.Q.W.W.W.W.R.W.W.W.W.W.i i w u S.I.).).L.u r   5 C 3 O     ",
"                                R.R.W.W.W.W.W.W.W.W.W.W.W.W.W.R.U.U.W.W.~.~.W.W.W.W.W.W.W.W.W.W.        w y { L.L.|  .2 =       ",
"                                V.Q.!.!.!.!.Q.E.R.W.W.W.~.~.E.E.V.V.W.W.R.R.W.R.E.Q.!.!.!.!.E.J.              w S.I._.w         ",
"                                U.R.R.W.W.W.B.R.R.R.W.W.W.~.W.W.V.B.~.W.U.R.R.R.B.U.W.W.W.R.B.B.              1 t `.K.{         ",
"                                @.@.o.o.o.o.@.O.F.B.B.B.~.W.W.W.B.B.~.~.W.R.B.B...;.'.o.o.o.@.O.            : Z 4 e S.I.w       ",
"                                _ ] ] ] W _ ] _ D.B.V.B.W.~.~.W.B.B.W.~.W.R.B.B.` W P ) W _ W _           1 C 2 =   r ).y       ",
"                                ) _ ^ ^ _ ` ` ` D.B.V.B.W.~.W.W.B.B.R.W.W.W.B.B.+._ _ ) ^ ^ %._         1 v 3 =       K.S.      ",
"                                _ _ P P _ _ _ ` D.B.V.B.W.W.W.W.B.B.W.W.W.W.R.B.+._ _ _ P P %._       3 6 4 =         u K.      ",
"                                _ _ P P _ _ T ^ D.B.W.W.W.W.W.R.H.B.W.W.W.W.R.R./ T _ _ P P _ $.    2 6 3 ;           r _.*     ",
"                                _ _ P P ` _ P ~ D.B.!.W.~.W.R.R.R.R.~.~.W.W.R.V.! P _ ) P P _ %.  2 6 4 =             w `.*     ",
"                                ) _ ) ) _ _ P ~ D.U.W.W.W.~.R.U.R.W.W.~.W.W.R.B.! P ) _ T ) %.%.1 6 2 ;                 I.*     ",
"                                _ _ ' ' _ _ P ~ F.R.~.~.~.W.U.B.W.W.~.W.~.W.R.R.! T %.$.%.$.T 9 Z 4 =                   | *     ",
"                                _ _ _ _ _ _ P ~ ^.W.W.W.W.W.B.B.R.W.~.~.~.W.H.B.! T _ _ _ _ 9 Z 1 =                     y *     ",
"                                ) ' _ _ _ _ T ~ ^.W.E.W.R.R.B.H.R.W.W.W.W.W.B.B.! P %.$._ 9 Z 1 =                       r *     ",
"                                ' _ _ _ _ ) _ ) F.U.V.B.R.R.R.R.W.W.W.W.~.W.R.B.#.T %.T 9 Z 2 ;                                 ",
"                                ) ' _ ' ' ` _ ` F.R.B.B.H.H.W.W.W.~.W.W.~.W.R.B.#.X.%.0 Z 1 : K                                 ",
"                                _ _ _ _ T ^ ) ` h.y.y.y.y.y.u.u.u.u.t.t.Y.Y.R.V.#.T 9 6 4 : K _                                 ",
"                                _ _ _ _ P P _ ` q.5.6.6.5.0.5.5.6.5.<.1.T.T.H.R.! 9 Z 2 - K _ %.                                ",
"                                P ( _ _ ( ( ( ~ j.8.9.j.j.8.8.9.8.8.7.4.e.w.Z.N.a 6 2 : K _ ^ P                                 ",
"                                P ( ' ' ' ) ( ! j.8.8.8.8.8.8.8.8.8.0.7.2.1.r.N.a ; : K *.$.T ^                                 ",
"                                                0.9.8.8.8.8.8.8.8.8.8.8.8.8.y.y.                                                ",
"                                                8.9.8.8.8.9.8.8.8.8.8.8.8.8.7.5.                                                ",
"                                                8.8.8.8.8.9.8.8.8.8.8.8.8.8.9.8.                                                ",
"                                                8.8.8.8.8.8.8.8.8.8.8.8.8.8.8.8.                                                ",
"                                                0.8.8.8.8.8.8.7.8.8.8.0.8.8.8.8.                                                ",
"                                                8.9.8.8.8.8.8.8.8.8.8.8.8.8.8.8.                                                ",
"                                                8.9.8.8.8.8.8.8.8.8.8.8.0.8.8.8.                                                ",
"                                                8.9.8.8.8.8.8.8.8.7.8.8.8.8.8.8.                                                ",
"                                                8.9.8.8.8.8.8.8.8.8.8.8.8.8.8.8.                                                ",
"                                                8.9.8.8.8.9.8.8.8.8.8.9.8.8.8.8.                                                ",
"                                                4.8.3.3.4.3.4.4.7.4.4.3.3.3.7.7.                                                ",
"                                                4.8.3.3.3.4.4.4.7.4.3.3.3.3.7.4.                                                ",
"                                                8.8.8.4.0.8.8.8.8.8.7.8.8.8.8.8.                                                ",
"                                                8.8.8.8.8.9.8.8.8.8.8.8.8.8.8.8.                                                ",
"                                                8.9.8.8.8.8.8.8.8.8.8.8.8.8.8.8.                                                ",
"                                                8.9.8.8.8.8.8.8.8.8.8.8.8.8.8.8.                                                ",
"                                                8.9.8.8.8.8.8.8.8.7.8.8.8.8.8.8.                                                ",
"                                                8.9.8.8.8.8.8.8.8.9.8.8.8.8.8.8.                                                ",
"                                                s.f.i.i.i.i.s.s.s.s.i.i.i.i.s.s.                                                ",
"                                                f.g.p.p.p.p.g.d.s.d.a.p.a.p.f.g.                                                ",
"                                                k l g l g h j h j g h g h g j k                                                 ",
"                                                g g g g g g g g g g g g g g g g                                                 ",
"                                                f f g g g g f f p f g g g g f f                                                 ",
"                                                p f g g g g p p p p g g g g p p                                                 "
};
