/* XPM */
static char *_fef5f77dd5d49a7eb4fe13b117d1361sf5Txta89hTv7iRn[] = {
/* columns rows colors chars-per-pixel */
"64 64 102 2 ",
"   c #C63E09",
".  c #C93F09",
"X  c #C94507",
"o  c #CD4C07",
"O  c #C74409",
"+  c #C9450A",
"@  c #C7480C",
"#  c #CA4C0C",
"$  c #D04D0B",
"%  c #CD5007",
"&  c #CD520E",
"*  c #CF5A0F",
"=  c #D0550D",
"-  c #D15A0E",
";  c #CE5510",
":  c #CF5911",
">  c #D05710",
",  c #D15C12",
"<  c #D2610E",
"1  c #D56A0F",
"2  c #CF6015",
"3  c #D36314",
"4  c #D46A16",
"5  c #D36619",
"6  c #D56C1A",
"7  c #D86E1B",
"8  c #D77117",
"9  c #D87213",
"0  c #D77519",
"q  c #D7761B",
"w  c #D7721D",
"e  c #D5721F",
"r  c #D4741F",
"t  c #D8721A",
"y  c #D8731E",
"u  c #D6781F",
"i  c #D97B1D",
"p  c #D97D1F",
"a  c #D56F21",
"s  c #D77420",
"d  c #D77521",
"f  c #D67623",
"g  c #D87521",
"h  c #D87722",
"j  c #D67820",
"k  c #D77A23",
"l  c #D77C26",
"z  c #D87823",
"x  c #D97A23",
"c  c #D97925",
"v  c #D97B24",
"b  c #D97C24",
"n  c #DA7F24",
"m  c #DA7E25",
"M  c #DA7E28",
"N  c #D98521",
"B  c #D98422",
"V  c #D88025",
"C  c #DB8325",
"Z  c #DC8D27",
"A  c #DA8128",
"S  c #DB832B",
"D  c #DB832D",
"F  c #DB872C",
"G  c #DB872D",
"H  c #DC852C",
"J  c #DE892B",
"K  c #DE8D2A",
"L  c #DD8A2E",
"P  c #DD8B2E",
"I  c #DD8C2D",
"U  c #DC8E2C",
"Y  c #DC9328",
"T  c #DB8630",
"R  c #DE8D32",
"E  c #DE8E34",
"W  c #DF9134",
"Q  c #DE9235",
"!  c #DF9437",
"~  c #DF9637",
"^  c #DF9737",
"/  c #DF9539",
"(  c #E08F32",
")  c #E19234",
"_  c #E09435",
"`  c #E19738",
"'  c #E19639",
"]  c #E0963A",
"[  c #E09838",
"{  c #E29E3B",
"}  c #E29B3C",
"|  c #E29D3E",
" . c #E49F3E",
".. c #E4A03F",
"X. c #E39C40",
"o. c #E5A340",
"O. c #E3A441",
"+. c #E5A244",
"@. c #E6A345",
"#. c #E6A347",
"$. c #E5A744",
"%. c #E5A645",
/* pixels */
"r % # X X O .     . # > , 5 5 5 4 3 ; : : # > # > 5 w w Y O.%. ...{ } f 3 * o & & @ & @ @ % % @ @ @ # # & * * C l ^ _ } ! ) r 4 ",
"f - # % o o # . . . O ; , 5 4 , ; & # # @ # @ @ @ , 1 C B ..%.%...{ E E 3 - : # @ & @ & & @ @ @ % @ # & # : < 2 F ^ { ! _ Q F v ",
"S u = - < o # - o . + # : : 2 * * # O @ O O @ @ # # # 1 t [ @.%.{ ^ K H v > ; # & @ # # @ @ # % @ # # # # ; & 5 i F Q Q _ E F F ",
"D - = 1 1 B Y Z & 5 # o & * * * # # @ X O O O O @ + o = t t } T ..! V I 3 ; > & # & & & # % @ @ # # # & @ & & 2 C l F I T H v v ",
"w = > 7 J Y o.Z ^ % & % & & & # o @ X O O O O @ @ O # > , 7 7 7 w 6 4 w , , ; & & # # # # # @ # # & # & @ & & ; = 3 8 C H H v 4 ",
", & $ = K @.O.%.B 1 * & # # # # X X O O O O O O O @ # # # , 3 , 8 : , ; , ; & ; # & # # o # @ # # & & # @ & ; : = 5 z f z y y 3 ",
"- # & 4 7 @.@.%.$.J & - & o @ @ O O O O O O O O O @ + # > , , , = , & ; & & ; & & & # # @ @ # # # # & & ; ; @ @ = - t 7 z r y 4 ",
"* < # 4 5 S @.#.J C & o @ @ @ @ O O O O O O O O O O O + # > 5 > > = ; # & & ; # @ & @ @ @ o # # & & & # @ @ @ ; # - 6 y z z 6 , ",
"5 & = = v v X.X.y - - = o # X # O O O O # O O O O   O # # 2 3 2 5 : ; & # # # # & # # @ # @ # @ & # & # # # # # # , 0 z n z z 3 ",
"5 , $ - r J } ! J - # & # # X O O X O X # O X O O O O X # & 4 5 5 : & & & # # # # @ @ # # # # & & & & & & # # & , , r v z z v 6 ",
"5 ; , = q i T ( t - o # # # # O O O O X X @ X @ O   O O * 3 : 6 3 ; ; ; # # # # @ @ # # # & # # # * & & > # ; ; 3 6 r f M v C 7 ",
"< , - - q ) E E t 8 > # & & # O O O O O O O O X O O X @ o & 5 3 : ; ; ; ; # ; & & & # # # # & # # * - > > ; ; ; & 4 6 w f s v 5 ",
"5 * 3 , C J }  .( y 3 , & & # # O O O O O @ @ X X X @ & # , , 3 : ; ; & ; ; & & & & & @ # ; * & = 6 6 = ; ; , , , , 5 , w 3 : 5 ",
": * = 3 Y _ o.` ` y , = & # # # X O X O X X O @ @ # @ & # & ; ; ; ; & ; ; ; ; ; & # ; @ # ; = = 5 5 6 a 5 , ; ; * > , & & o # # ",
"& * = F / o.@.#.o.` C 4 & # # @ O X o # @ @ @ & # # # & ; ; : & & ; & ; ; > : : : ; @ @ # ; > 6 f g f a 5 3 = # & # , ; # @ # @ ",
"# > 4 C C o.@.@.@.} < & * ; # @ # o # % & & * & ; # & ; & ; ; & # # # & * ; : ; ; & & ; > ; y j l f f 5 3 5 ; = + $ $ ; # # @ O ",
"& & 4 i _ .. .! / 9 B & % # # @ X # o 3 2 * & ; ; ; & ; ; ; * & & + & $ # ; ; & & # # = 4 6 M z v v 6 3 , # # X + $ : # & # O X ",
"; ; 3 3 i n J ..B < * * o @ @ @ # , , 4 3 , 5 : ; , ; ; : ; * * > & # # # ; # ; ; # & = 3 g v M M 4 4 # +       > 6 4 5 : & # @ ",
"& ; * 3 3 J 4 C 0 < < & X X @ @ , 3 6 5 6 6 5 3 , ; ; ; , : 3 : & & $ & ; # > = # # % & - v M M H 4 4 $ .   O # 4 0 s 5 , ; # # ",
"& & # , 3 & % & * * & & # @ # & & , 6 6 6 6 5 , 3 > > > , 5 3 5 3 , , , # > = = # > 8 3 v M M z i i 8 - & - X 6 6 r s e ; ; # # ",
"# # @ O X O # & : ; # # & @ # & & 5 7 7 7 6 5 , 3 , , > , , 6 7 7 3 f = 5 > > = 6 4 C v v v g M t t 5 3 - z H & F j v 6 , ; # # ",
"# @ @ O O # @ @ & : ; ; & # @ & > 5 6 7 6 4 5 3 3 3 3 , , , 6 t g f 7 g 7 , > , z H H H M g v y y v H H _ v [ Y F 8 - = & # # ; ",
"# @ O O O O @ @ @ : & : @ # @ @ & 5 5 5 7 3 4 3 3 4 4 , , , , 4 v S S z g 3 5 w g S H S H v 8 6 7 v S E _ / ! E C 6 , = ; # # @ ",
"@ @ O O @ O O @ # @ # # # # + ; ; , , 5 3 3 4 4 4 z 4 g 5 3 3 y v S C v v 4 4 g v M S S v f 6 6 7 z t v ! ^ u 6 6 : & & # # @ @ ",
"O     X # # % + X X + + # # # & ; : 5 , 3 5 4 4 S v D w 7 7 5 5 M v S v 7 f 4 7 M F M J v w t 4 , - - = = - C z 6 # # # # # O X ",
"O O O o * * 5 3 $ X X + + & # ; & ; : : ; 3 5 8 j F T F H z 4 7 g y g v 7 7 5 6 f f D M v 5 - $ 3 X # + X X # # > o # # X @ O O ",
"O O O - 8 5 3 z g X . + + + + + @ ; : : , 5 8 8 I E E ( z S t 6 w z v g 7 7 3 3 5 7 H w z y = # X # O O   X O @ # @ # X O O     ",
"X & # - 8 v C S z 7 $ . + + + + # ; ; : ; , 6 v F F ( J v y n y w g g y t , 3 - : w f 8 w & # O X O O   + X X @ # # O @ O O     ",
"X & 6 6 j u D D J t T $ > = . + O ; ; & : : 2 4 F J S J D v v z v w g 6 , > = > ; 6 5 3 & # @ # X O O O O @ O O O @ # O O   O X ",
"& : 6 r f l M J J ) T v 3 O X X O @ & ; : : : 8 4 d v M D C v v v w 6 3 7 > & ; # ; * # # # X # # O O O X @ @ @ @ O O O O O O & ",
"* 5 6 8 y w v J ( ( ( ( t - X $ @ # # & & ; : : 4 3 w w v z g f y d 7 6 = > & # # # # # # @ # X # O O @ O @ # @ @ O O O O @ O * ",
": 5 5 5 w j v M H ( T E H 3 X X O # # # # & # * & , ; > f f 6 f 6 : 6 > # # # # # @ @ @ X @ @ X @ @ @ # # # @ @ @ X O # X O & 3 ",
"; > 6 6 6 6 z f M S F S F 4 - # @ X @ @ & # ; & & & > > = = * 6 & & # # & # # # # O O O X @ @ X # X + + # + # # X # @ @ + , , 3 ",
"- - = > , f f g f r r j 8 u * * O   O O # # @ & ; & ; # ; = # * # # & # # # O # O O O O @ X @ X @ # o # # X # + O X X & = > 6 5 ",
"5 * & ; 5 8 6 g z 3 u u f 2 : 2 & O   @ @ # ; & & & & & # # o @ # # # # X # # O O O O O O @ @ # # + + = o # & o # & $ , 5 5 5 7 ",
", & * ; 3 5 s 6 7 3 - 5 : : : # # O @ @ @ @ # # # ; ; # = & & @ # # O X O @ X # X O O O O O X # - = 5 $ = 5 & - $ # 3 , 5 6 7 5 ",
"3 * & ; 3 5 7 6 , , $ $ & & # ; @ @ o O O # # # ; ; ; & & & : & & # # O O X O X O O O O O O # @ > a v 5 v , , 6 : 3 5 5 f a 6 6 ",
"5 5 * * > , 6 6 , - $ = # # # # # # # # # # # # ; ; : : , 5 : 2 & & # # X O O O O O @ O @ O X ; > T E E v r z 5 6 7 f f w 6 6 6 ",
"6 ; = > , 5 5 5 5 3 $ = ; # # # # # & @ # # # & * * 5 2 6 6 3 * * o @ O O O O O O O X O X @ @ o f f E T M g 7 7 6 g w w w s 6 5 ",
"5 3 ; * * 3 5 5 5 3 3 , : # # # @ @ & & & # & * ; * 2 4 4 5 * 5 & O O O . . O . O O O O O o # : > a v v M y 5 5 5 5 f w d w 6 3 ",
"5 , > * > = 3 5 6 6 6 8 : & # X # & # & & & # 2 ; 5 6 5 5 5 ; # @ @ @ X O O   X   X O X @ # & & 6 v 5 , , , 3 6 s 5 a w s 6 5 3 ",
"5 ; , > # # o 5 3 r 6 6 2 & & # # # # & # & & < z f 7 7 = & & # # X O X   O O O O O O O @ # # & = = 5 $ # # # : 5 f a f 5 6 6 , ",
"5 * o ; $ X # 3 : 6 s w 6 : # X # # & # # & # 6 D f T 5 = o # O O O O @ O O O O O O O @ @ @ @ # # # # $ # & # : 5 6 s a 6 3 3 ; ",
": > # # O O O & : 3 : 5 2 3 * # # # # # & # * 8 F _ H H s O X O @ O @ @ X O   O O O O X @ @ ; # # # # + # & * * , 5 6 6 5 3 3 , ",
"; O O . . O O @ % 3 5 : # & & # # # & # # & & 4 4 } ( v t = $ # # & & @ @ X O   O O O @ @ @ @ # # # O # & & # 2 4 5 5 6 5 , ; & ",
"# O O O . . . X O X * * o # # # # ; # & ; # = = 3 ` / / 4 - $ $ @ < & : @ O O   O O O # # & # # # # # & & * : 3 : 5 * 5 , - ; & ",
"# O       . O @ @ @ @ # X O O # & & ; ; > ; = % C ` ` ) C - = = 1 5 2 * o X O     O @ # # # # # # # ; & * : 3 3 3 : ; > ; & & # ",
"O .   O   O O O X O o O X X O # & & , > ; # = 1 i C ` ` _ t v 4 4 6 5 ; # # O O o X o # % * ; ; ; & & ; : : * * 2 2 & & * # & X ",
"X O . O . O X O @ O @ @ O X # & & : 3 : * & & , i ) ` E E v y g 7 7 5 , # O @ O % * 3 3 , , > * ; ; ; ; > > > > : & ; & # & @ @ ",
"# O O . O O O X O @ O O X O # & 2 3 3 : ; : # > > g H ( E F v v y t 3 > > @ @ @ 2 4 * 3 7 , , 3 : : ; ; & > : : : # # # # # # @ ",
"X O O O O O X @ @ O @ O @ O X # : 5 5 3 ; > # & , 6 7 v v F M v v 7 a > & # # ; 5 w f v v y 7 4 4 5 ; ; , & & & & # # # # # @ + ",
"O O O O O O @ X @ X # O X X # # 3 5 3 5 ; # & # , 5 y 6 6 6 v a a 7 a , # # # # ; w w v v y s j 4 7 3 - & & & & & # & O # + @ + ",
"O O O X @ O @ + @ X @ @ # # o ; : 5 5 3 & ; O & & > : ; > - - 5 5 5 5 5 ; ; # & # 3 3 i C v v v C f 3 3 4 - = $ # & & # O O O + ",
"X O @ # # + + @ # # # # # @ * ; : 3 : : , + O # # * ; ; # = # > # 6 : , : & # # # 3 , 4 v v H C v f g 5 1 - , $ , # @ # O O O + ",
"@ # X o X @ # # # # o # # & # & 3 : , > # @ + # # # ; @ O @ @ # o 3 : : ; ; & # # & < < v H M C H M M 7 4 , 1 = > & + + + O O + ",
"# $ > ; > ; > > & & & # # # # * > , > > # # # + # # O & @   . O @ # # o : ; @ @ # % 3 e 7 C S H v M v z g g f 3 ; , & O O O @ + ",
"o - 3 5 : 5 : , ; & & % & & # , , , , = = # X + @ # # @ O O O X X @ $ # & # # # + $ > 6 j l v M g g a g z v v f 6 5 X X O O   O ",
"X 3 , f 5 5 s 5 : > & * & - > 3 , 5 5 3 , $ $ $ @ # # # @ @ @ # + # + # + + @ O + # > 6 f j M f 7 7 a g a M H v 5 # O X   O   # ",
"& 5 , w f f 5 7 6 3 * - - , , 5 5 5 f f - 4 < = # # # @ O O # # # = # > $ # # O + # & * 5 7 l 6 7 5 5 7 v z S j l o O       O O ",
"* 5 w g f s f 5 5 6 > > - : 3 w 7 j f f H C i i > $ # @ @ # # & = 3 3 o , , > # + & # 3 3 > 5 3 5 5 7 5 7 g S l 3 # +       # # ",
"& 5 w r y i w 7 6 5 , > - 5 5 8 f S H S W E C 4 7 $ - # # $ & = 3 w g 3 z 3 , = > = ; ; ; , ; ; > 3 5 7 g g v 6 ; X O O     O @ ",
"X 5 4 8 r w 6 f 6 6 5 , , 6 8 f C v M E ) ) _ v 4 z 3 o # $ > 4 4 w M J S w g 6 5 > > > # # # & , 5 3 7 y 6 6 , * * O O O   @ # ",
"# & 2 5 4 e 7 6 5 4 , , 3 5 w f v C E K ( ) _ ) z H t - = = , 4 v S D H T D g v , > > # # @ # # & , 5 5 6 3 , = & # O @   O @ @ ",
"@ o 2 * 5 3 6 3 , , : , 5 6 6 f z H H J E E ) T I v 4 5 1 = 3 y D H ( T J v v 7 3 ; # # @ # # & & , = - - 5 - = = & & @ @ O @ @ "
};
