/* XPM */
static char *_407798f64344da3df35d6e76b7227d1q1waUk3G0k4vHK0C[] = {
/* columns rows colors chars-per-pixel */
"64 64 120 2 ",
"   c None",
".  c #145E52",
"X  c #10727A",
"o  c #17847D",
"O  c #258E80",
"+  c #239789",
"@  c #2FA596",
"#  c #1B9EA0",
"$  c #1BA8A5",
"%  c #1EABA7",
"&  c #19AFA6",
"*  c #1CB7A7",
"=  c #1BB3AA",
"-  c #1DB5AB",
";  c #1EBBAB",
":  c #1DBAAD",
">  c #1DB8AE",
",  c #1CBDAD",
"<  c #1FBEB2",
"1  c #26AEA2",
"2  c #28B5B1",
"3  c #20BFB0",
"4  c #33BFBA",
"5  c #439384",
"6  c #519388",
"7  c #45A99A",
"8  c #5BAC9E",
"9  c #4FA0A3",
"0  c #54A0A4",
"q  c #60A1A7",
"w  c #1EC1B1",
"e  c #1DC5BF",
"r  c #20C2B2",
"t  c #20C5B5",
"y  c #28C1B7",
"u  c #23C5BF",
"i  c #23CABA",
"p  c #27CFBF",
"a  c #2ACFBE",
"s  c #35C6B7",
"d  c #49C2BD",
"f  c #1AD8CF",
"g  c #1FDAD1",
"h  c #1DDCD3",
"j  c #32CBC0",
"k  c #34D7C5",
"l  c #35D9C7",
"z  c #38DECC",
"x  c #26DDD2",
"c  c #23DCD4",
"v  c #20DFD7",
"b  c #2FE1D6",
"n  c #2DE5D9",
"m  c #37E1D1",
"M  c #32E2D4",
"N  c #37E4D6",
"B  c #3CE1D5",
"V  c #3EE8D7",
"C  c #33E3D8",
"Z  c #35E6D8",
"A  c #3BE6D9",
"S  c #38EADC",
"D  c #48CFC4",
"F  c #43D8C7",
"G  c #4BDDCB",
"H  c #4EE1D0",
"J  c #4AEDD9",
"K  c #53EEDB",
"L  c #5CEEDD",
"P  c #60F1DD",
"I  c #65F2DF",
"U  c #69F1DF",
"Y  c #6AF1DF",
"T  c #6BECE0",
"R  c #72F2E0",
"E  c #73F2E1",
"W  c #75F4E0",
"Q  c #88B9BD",
"!  c #ACDBD8",
"~  c #8CE8DB",
"^  c #80F5E3",
"/  c #85F4E4",
"(  c #89F5E5",
")  c #8AF5E6",
"_  c #8DF5E6",
"`  c #8EF5E6",
"'  c #8EF5E7",
"]  c #8BF8E4",
"[  c #90F5E7",
"{  c #96F8E7",
"}  c #98F6E9",
"|  c #9DF7E9",
" . c #9CF6EA",
".. c #9FF9E9",
"X. c #A4F6EC",
"o. c #A1FBE8",
"O. c #A0F9EA",
"+. c #A9F9EB",
"@. c #ABF9EC",
"#. c #A8FAEC",
"$. c #ADF9ED",
"%. c #AFF9ED",
"&. c #B7F8F0",
"*. c #B8FAF0",
"=. c #BAFAF0",
"-. c #BCFAF1",
";. c #C3FAF2",
":. c #C5FAF3",
">. c #C3FDF1",
",. c #C8FCF1",
"<. c #C9FEF3",
"1. c #CDFDF3",
"2. c #C9FAF4",
"3. c #CEFBF4",
"4. c #D0FDF4",
"5. c #D3FDF4",
"6. c #DBFEF6",
"7. c #E5FEF9",
"8. c #E9FEFA",
"9. c #F2FFFC",
/* pixels */
"                                                                                                                                ",
"                                                                                                                                ",
"                                                                                                                                ",
"                                                                                                                                ",
"                                                                                                                                ",
"                                                                                                                                ",
"                                                                                                                                ",
"                                                                                                                                ",
"                                                                                                                                ",
"                                                                                                                                ",
"                                                                                                                                ",
"                                                                                                                                ",
"                                                                                                                                ",
"                                                                                                                                ",
"                                                                                                                                ",
"                                                                                                                                ",
"                                                                                                                                ",
"                                                                                                                                ",
"                                                                                                                                ",
"                                                                                                                                ",
"                                                          X X X X X X                                                           ",
"                                                      q ! 6.7.6.7.4.6.! 9                                                       ",
"                                                    q ,.W K J K L J L ..6.0                                                     ",
"                                                  q >.#.[ J J J J J J  .$.$.6                                                   ",
"                                                q >.R I 1.J J J J J J -.M x { 6                                                 ",
"                                              q >.R J J #./ J J J J J :.x f x { 6                                               ",
"                                            X 6.U J J J P 1.J J J J } T f f f x { .                                             ",
"                                            Q ..J J J J J =.` J J J 2.M f f f f x 7                                             ",
"                                          X 7.W J J J J J W 5.O.) ` 8.f f f f f f x .                                           ",
"                                          Q >.7.U J J J P 6.6.;.X.X.,.B f f f f h Z +                                           ",
"                                        X 4.U W 6.*.E E 7...U K J J { ~ f f v n m r * .                                         ",
"                                        X 4.J J P $.6.6.O.K J J J ] o.O.e S l a t t ; .                                         ",
"                                        Q ..J J J J ( 6.R J J J ] o.o.o.d t t t t t 3 o                                         ",
"                                        Q ) J J J J W :.J J J ] o.o.o.P s t t t t t t o                                         ",
"                                        Q ) J J J J ^ X.J J ] o.o.o.P J 2 t t t , , - o                                         ",
"                                        Q #.K J L L #.X.J ] o.o.o.P J J % > & & > > w o                                         ",
"                                        X 9. .=.3.:.X.=.] o.o.o.P J J k # < t t t t > .                                         ",
"                                        X 9.6.) M f f B ] o.o.P J J k $ < t t t t t > .                                         ",
"                                          Q P f f f f f f N D k y > > & t t t t t i o                                           ",
"                                          X W f f f f f f e , w t t t > > t t t t H .                                           ",
"                                            8 M f f f f g & e w t t t t - w e t i 7                                             ",
"                                            . V f f f f c - w w t t t t - t t t z .                                             ",
"                                              O b f f g j , e e t t t t w , t F 5                                               ",
"                                                O M c v j , w w t t t t w - a O                                                 ",
"                                                  O s A - w a i i i j j F * 5                                                   ",
"                                                      . @ 7 7 @ 8 8 7 7 .                                                       ",
"                                                                                                                                ",
"                                                                                                                                ",
"                                                                                                                                ",
"                                                                                                                                ",
"                                                                                                                                ",
"                                                                                                                                ",
"                                                                                                                                ",
"                                                                                                                                ",
"                                                                                                                                ",
"                                                                                                                                ",
"                                                                                                                                ",
"                                                                                                                                ",
"                                                                                                                                ",
"                                                                                                                                ",
"                                                                                                                                ",
"                                                                                                                                ",
"                                                                                                                                ",
"                                                                                                                                "
};
